<svg id="Layer_1" data-name="Layer 1" xmlns="http://www.w3.org/2000/svg" viewBox="0 0 228.07 111.88"><defs><style>.cls-1{fill:#fff;}</style></defs><title>DrupalCamp2016-Logo</title><path class="cls-1" d="M97.75,12.47V11.3c0-2.29,3.39-5.55,3.39-7.51V2.74a0.93,0.93,0,1,0-1.79,0v1.5H97.72V2.56A2.34,2.34,0,0,1,100.3,0a2.24,2.24,0,0,1,2.48,2.46V4c0,2.19-3.3,5.36-3.39,6.95h3.07v1.55H97.75Z"/><path class="cls-1" d="M106.79,2.56A2.35,2.35,0,0,1,109.42,0c1.52,0,2.43.77,2.43,2.56v7.56a2.32,2.32,0,0,1-2.51,2.56,2.35,2.35,0,0,1-2.55-2.56V2.56Zm3.43,0.21a0.94,0.94,0,1,0-1.79,0V9.91a0.94,0.94,0,1,0,1.79,0V2.77Z"/><path class="cls-1" d="M117.53,12.47V2l-1.84.59V1l2-.78h1.41V12.47h-1.6Z"/><path class="cls-1" d="M128.68,9.92c0,1.73-.66,2.75-2.51,2.75s-2.56-1-2.56-2.75V2.66c0-1.75.78-2.66,2.54-2.66s2.51,0.88,2.51,2.66V3.47H127V2.77a0.94,0.94,0,1,0-1.79,0v2.8a1.74,1.74,0,0,1,1.63-.9c1.1,0,1.81.59,1.81,2.08V9.92ZM127,7.59c0-1.18-.45-1.38-0.85-1.38s-0.94.35-.94,1.38V9.88a1,1,0,0,0,.9,1.25,1,1,0,0,0,.9-1.25V7.59Z"/><path class="cls-1" d="M12.6,42.14A10.26,10.26,0,0,1,5.9,44.21H0V26.81H5.9a10.12,10.12,0,0,1,6.71,2.09,8.08,8.08,0,0,1,2.82,6.6A8.18,8.18,0,0,1,12.6,42.14ZM9.76,31.43a5.24,5.24,0,0,0-3.63-1.24H4.06V40.75H6.13a5.12,5.12,0,0,0,3.63-1.26,5.08,5.08,0,0,0,1.54-4A5.39,5.39,0,0,0,9.76,31.43Z"/><path class="cls-1" d="M39,44.21H34.31l-3.66-6.65H29.37v6.65H25.29V26.81h6.25A7.56,7.56,0,0,1,36.13,28,4.82,4.82,0,0,1,38,32a4.86,4.86,0,0,1-3.4,5ZM33,30.42A3.35,3.35,0,0,0,31,30H29.34v4.46H31A3.35,3.35,0,0,0,33,33.95a1.94,1.94,0,0,0,.88-1.76A2,2,0,0,0,33,30.42Z"/><path class="cls-1" d="M62.42,36.95c0,2.45-.43,4.13-1.66,5.47a7.36,7.36,0,0,1-5.62,2.07,7.42,7.42,0,0,1-5.65-2.07c-1.21-1.34-1.64-3-1.64-5.47V26.81H52V36.95a4.4,4.4,0,0,0,.68,2.9,3.41,3.41,0,0,0,5,0,4.4,4.4,0,0,0,.68-2.9V26.81h4.11V36.95Z"/><path class="cls-1" d="M83.8,36.47a7,7,0,0,1-4.54,1.31H77.12v6.43H73V26.81h6.23a7,7,0,0,1,4.54,1.31,5.06,5.06,0,0,1,1.82,4.16A5.15,5.15,0,0,1,83.8,36.47Zm-3.15-6a3.21,3.21,0,0,0-2-.48H77.09v4.66h1.59a3.21,3.21,0,0,0,2-.48,2.23,2.23,0,0,0,.83-1.87A2.18,2.18,0,0,0,80.65,30.44Z"/><path class="cls-1" d="M109.56,44.21h-4.44l-1.24-3.5h-6.2l-1.24,3.5H92.22l6.55-17.42H103ZM103,37.53l-2.17-6.25-2.17,6.25H103Z"/><path class="cls-1" d="M128.7,44.21H118.61V26.81h4.06v14h6v3.38Z"/><path class="cls-1" d="M151.61,42.14a8.25,8.25,0,0,1-6.28,2.37c-5.12,0-9.12-3.38-9.12-9s4.06-9,9.13-9c3.58,0,5.52,1.49,6,2L150,31.91a6.67,6.67,0,0,0-4.49-1.82,5,5,0,0,0-5.22,5.37,5,5,0,0,0,5.22,5.34A6.41,6.41,0,0,0,150.25,39Z"/><path class="cls-1" d="M176.7,44.21h-4.44L171,40.7h-6.2l-1.24,3.5h-4.23l6.55-17.42h4.23Zm-6.6-6.68-2.17-6.25-2.17,6.25h4.34Z"/><path class="cls-1" d="M205.26,44.21h-4l-0.68-11.85h-0.05l-3.73,11.85h-3.23L189.8,32.36h-0.08L189.1,44.21h-4l1.31-17.39h5.14l3.63,11.44h0.05l3.58-11.44H204Z"/><path class="cls-1" d="M226.11,36.47a7,7,0,0,1-4.54,1.31h-2.14v6.43h-4.08V26.81h6.23a7,7,0,0,1,4.54,1.31,5.07,5.07,0,0,1,1.82,4.16A5.15,5.15,0,0,1,226.11,36.47Zm-3.15-6a3.21,3.21,0,0,0-2-.48H219.4v4.66H221a3.21,3.21,0,0,0,2-.48,2.23,2.23,0,0,0,.83-1.87A2.18,2.18,0,0,0,223,30.44Z"/><path class="cls-1" d="M20.39,101.64c0,7.36-4.67,10.24-10,10.24s-10.17-3-10.17-10.24V71.44c0-7.23,4.61-10.24,10.37-10.24,5.12,0,9.85,2.43,9.85,9.79v8.13H13.87V72.27c0-3.58-1.79-4.86-3.58-4.86S6.7,68.69,6.7,72.27v28.54c0,3.58,1.79,4.86,3.58,4.86s3.58-1.28,3.58-4.86V94.67h6.53v7Z"/><path class="cls-1" d="M30.7,71.44c0-7.23,4.48-10.24,10.5-10.24s9.73,3.07,9.73,10.24v30.21c0,7.36-4.67,10.24-10,10.24s-10.17-3-10.17-10.24V71.44Zm13.69,0.83c0-3.58-1.79-4.86-3.58-4.86s-3.58,1.28-3.58,4.86v28.54c0,3.58,1.79,4.86,3.58,4.86s3.58-1.28,3.58-4.86V72.27Z"/><path class="cls-1" d="M62.12,111.05V62h6.53v42.81h7.81v6.21H62.12Z"/><path class="cls-1" d="M85.55,71.44C85.55,64.21,90,61.2,96,61.2s9.73,3.07,9.73,10.24v30.21c0,7.36-4.67,10.24-10,10.24s-10.17-3-10.17-10.24V71.44Zm13.69,0.83c0-3.58-1.79-4.86-3.58-4.86s-3.58,1.28-3.58,4.86v28.54c0,3.58,1.79,4.86,3.58,4.86s3.58-1.28,3.58-4.86V72.27Z"/><path class="cls-1" d="M131.62,111.05L126,90.89h-2.5v20.16H117V62h10.88c4.93,0,9,2.88,9,10.24v7.87c0,4.93-1.15,7.81-4.74,9.34l6,21.57h-6.53ZM130.34,73.1c0-3.58-1.15-4.86-3.58-4.86H123.5V84.68h3.26c2.43,0,3.58-1.28,3.58-4.86V73.1Z"/><path class="cls-1" d="M161.38,111.05l-1.28-10.88h-7.23l-1.28,10.88h-6.53l6.59-49h9.6l6.66,49h-6.53Zm-4.93-41.53L153.58,94h5.76Z"/><path class="cls-1" d="M177.06,111.05V62h11C193,62,197,64.91,197,72.27v28.54c0,7.36-4,10.24-8.89,10.24h-11ZM190.44,73.1c0-3.58-1.15-4.86-3.58-4.86h-3.26v36.6h3.26c2.43,0,3.58-1.28,3.58-4.86V73.1Z"/><path class="cls-1" d="M207.85,71.44c0-7.23,4.48-10.24,10.5-10.24s9.73,3.07,9.73,10.24v30.21c0,7.36-4.67,10.24-10,10.24s-10.17-3-10.17-10.24V71.44Zm13.69,0.83c0-3.58-1.79-4.86-3.58-4.86s-3.58,1.28-3.58,4.86v28.54c0,3.58,1.79,4.86,3.58,4.86s3.58-1.28,3.58-4.86V72.27Z"/><rect class="cls-1" x="0.14" y="6.77" width="84" height="2"/><rect class="cls-1" x="144.02" y="6.77" width="84" height="2.01"/></svg>